# 3ds Max Wavefront OBJ Exporter v0.97b - (c)2007 guruware
# File Created: 10.12.2020 15:32:42

mtllib ?????????.mtl

#
# object Torus001
#

v  -2.0924 32.1775 37.4233
v  -2.0924 43.9582 37.4233
v  -11.2605 43.9582 37.7793
v  -11.2605 32.1775 37.7793
v  -2.0924 50.2265 37.4233
v  -11.2605 50.2265 37.7793
v  -2.0924 14.1285 37.4233
v  -2.0924 20.3968 37.4233
v  -11.2605 20.3968 37.7793
v  -11.2605 14.1285 37.7793
v  -19.2394 43.9582 34.9194
v  -19.2394 32.1775 34.9194
v  -19.2394 50.2265 34.9194
v  -19.2394 20.3968 34.9194
v  -19.2394 14.1285 34.9194
v  -24.6988 43.9582 30.2630
v  -24.6988 32.1775 30.2630
v  -24.6988 50.2265 30.2630
v  -24.6988 20.3968 30.2630
v  -24.6988 14.1285 30.2630
v  -28.5942 43.9582 22.9052
v  -28.5942 32.1775 22.9052
v  -28.5942 50.2265 22.9052
v  -28.5942 20.3968 22.9052
v  -28.5942 14.1285 22.9052
v  -29.7616 43.9582 16.0779
v  -29.7616 32.1775 16.0779
v  -29.7616 50.2265 16.0779
v  -29.7616 20.3968 16.0779
v  -29.7616 14.1285 16.0779
v  -28.4021 43.9582 8.7583
v  -28.4021 32.1775 8.7583
v  -28.4021 50.2265 8.7583
v  -28.4021 20.3968 8.7583
v  -28.4021 14.1285 8.7583
# 35 vertices

vn 0.0388 0.0000 0.9992
vn -0.1521 0.0000 0.9884
vn -0.5014 0.0000 0.8652
vn -0.7802 0.0000 0.6255
vn -0.9466 0.0000 0.3223
vn -1.0000 0.0000 -0.0071
vn -1.0000 -0.0000 -0.0071
vn -0.9832 0.0000 -0.1826
vn -0.9832 -0.0000 -0.1826
# 9 vertex normals

vt 0.9417 0.3803 0.0000
vt 0.9417 0.5993 0.0000
vt 0.7712 0.5993 0.0000
vt 0.7711 0.3803 0.0000
vt 0.9417 0.7158 0.0000
vt 0.7712 0.7158 0.0000
vt 0.9417 0.0448 0.0000
vt 0.9417 0.1613 0.0000
vt 0.7711 0.1613 0.0000
vt 0.7711 0.0448 0.0000
vt 0.6136 0.5993 0.0000
vt 0.6136 0.3803 0.0000
vt 0.6136 0.7158 0.0000
vt 0.6136 0.1613 0.0000
vt 0.6136 0.0448 0.0000
vt 0.4802 0.5993 0.0000
vt 0.4802 0.3803 0.0000
vt 0.4802 0.7158 0.0000
vt 0.4802 0.1613 0.0000
vt 0.4802 0.0448 0.0000
vt 0.3254 0.5993 0.0000
vt 0.3254 0.3803 0.0000
vt 0.3255 0.7158 0.0000
vt 0.3254 0.1613 0.0000
vt 0.3254 0.0448 0.0000
vt 0.1967 0.5993 0.0000
vt 0.1967 0.3803 0.0000
vt 0.1967 0.7158 0.0000
vt 0.1967 0.1613 0.0000
vt 0.1967 0.0448 0.0000
vt 0.0583 0.5993 0.0000
vt 0.0583 0.3803 0.0000
vt 0.0583 0.7158 0.0000
vt 0.0583 0.1613 0.0000
vt 0.0583 0.0448 0.0000
# 35 texture coords

g Torus001
usemtl wire_006135006
s 1
f 1/1/1 2/2/1 3/3/2 4/4/2 
f 2/2/1 5/5/1 6/6/2 3/3/2 
f 7/7/1 8/8/1 9/9/2 10/10/2 
f 8/8/1 1/1/1 4/4/2 9/9/2 
f 4/4/2 3/3/2 11/11/3 12/12/3 
f 3/3/2 6/6/2 13/13/3 11/11/3 
f 10/10/2 9/9/2 14/14/3 15/15/3 
f 9/9/2 4/4/2 12/12/3 14/14/3 
f 12/12/3 11/11/3 16/16/4 17/17/4 
f 11/11/3 13/13/3 18/18/4 16/16/4 
f 15/15/3 14/14/3 19/19/4 20/20/4 
f 14/14/3 12/12/3 17/17/4 19/19/4 
f 17/17/4 16/16/4 21/21/5 22/22/5 
f 16/16/4 18/18/4 23/23/5 21/21/5 
f 20/20/4 19/19/4 24/24/5 25/25/5 
f 19/19/4 17/17/4 22/22/5 24/24/5 
f 22/22/5 21/21/5 26/26/6 27/27/7 
f 21/21/5 23/23/5 28/28/6 26/26/6 
f 25/25/5 24/24/5 29/29/6 30/30/6 
f 24/24/5 22/22/5 27/27/7 29/29/6 
f 27/27/7 26/26/6 31/31/8 32/32/9 
f 26/26/6 28/28/6 33/33/8 31/31/8 
f 30/30/6 29/29/6 34/34/8 35/35/8 
f 29/29/6 27/27/7 32/32/9 34/34/8 
# 24 polygons

